<?xml version="1.0" standalone="no"?>
<!DOCTYPE svg PUBLIC "-//W3C//DTD SVG 20010904//EN"
 "http://www.w3.org/TR/2001/REC-SVG-20010904/DTD/svg10.dtd">
<svg version="1.0" xmlns="http://www.w3.org/2000/svg"
 width="1452.000000pt" height="130.000000pt" viewBox="0 0 1452.000000 130.000000"
 preserveAspectRatio="xMidYMid meet">

<g transform="translate(0.000000,130.000000) scale(0.100000,-0.100000)"
fill="#FFFFFF"  stroke="none">
<path d="M1635 1276 c-176 -43 -309 -189 -366 -403 -31 -112 -31 -344 0 -458
77 -291 287 -442 563 -407 198 25 343 144 391 322 31 114 32 110 -8 110 -30 0
-35 -4 -40 -27 -38 -193 -162 -316 -347 -342 -174 -24 -320 39 -411 177 -95
143 -129 347 -92 553 45 258 186 406 403 425 83 7 197 -15 257 -50 91 -54 163
-164 181 -276 6 -38 9 -40 41 -40 l35 0 -7 43 c-29 189 -150 325 -330 373 -61
17 -202 17 -270 0z"/>
<path d="M3160 645 l0 -625 35 0 35 0 0 290 0 290 173 0 c184 0 234 -8 284
-46 46 -35 77 -93 133 -251 28 -76 62 -171 76 -210 25 -71 27 -73 60 -73 19 0
34 2 34 5 0 14 -153 422 -176 469 -31 64 -54 88 -110 115 -34 17 -36 20 -19
26 99 32 163 84 202 163 25 50 28 68 28 152 0 81 -4 102 -25 143 -44 87 -121
141 -238 166 -30 6 -147 11 -272 11 l-220 0 0 -625z m534 537 c77 -35 107 -61
132 -116 47 -102 26 -235 -49 -314 -70 -73 -149 -91 -394 -92 l-153 0 0 276 0
276 208 -4 c186 -4 212 -7 256 -26z"/>
<path d="M4860 645 l0 -625 385 0 385 0 0 30 0 30 -350 0 -350 0 0 275 0 275
323 2 322 3 3 28 3 27 -325 0 -326 0 0 260 0 260 340 0 340 0 0 30 0 30 -375
0 -375 0 0 -625z"/>
<path d="M6740 873 c-90 -219 -205 -501 -256 -626 l-93 -228 36 3 36 3 88 215
87 215 310 3 309 2 49 -117 c143 -350 126 -318 167 -321 l36 -3 -53 128 c-29
70 -144 352 -257 626 l-203 497 -47 0 -46 0 -163 -397z m354 -11 c75 -182 136
-334 136 -337 0 -3 -126 -5 -281 -5 -223 0 -280 3 -277 13 11 45 274 674 280
669 3 -4 67 -157 142 -340z"/>
<path d="M8010 1240 l0 -30 235 0 235 0 0 -595 0 -595 30 0 30 0 0 595 0 595
230 0 230 0 0 30 0 30 -495 0 -495 0 0 -30z"/>
<path d="M9790 645 l0 -625 35 0 35 0 0 625 0 625 -35 0 -35 0 0 -625z"/>
<path d="M10670 1264 c0 -3 102 -272 226 -598 124 -325 231 -604 236 -619 10
-26 14 -28 56 -25 l47 3 236 620 237 620 -30 3 c-17 2 -34 0 -38 -5 -4 -4
-105 -267 -225 -583 -120 -316 -221 -579 -225 -583 -4 -4 -54 117 -112 270
-58 153 -159 419 -224 590 l-119 313 -32 0 c-18 0 -33 -3 -33 -6z"/>
<path d="M12500 645 l0 -625 385 0 385 0 0 30 0 30 -350 0 -350 0 0 275 0 275
323 2 322 3 3 28 3 27 -325 0 -326 0 0 260 0 260 340 0 340 0 0 30 0 30 -375
0 -375 0 0 -625z"/>
</g>
</svg>
