<svg width="1166" height="123" viewBox="0 0 1166 123" fill="none" xmlns="http://www.w3.org/2000/svg">
<path d="M0.452813 122V1.29999H39.8928C52.5861 1.29999 63.1261 4.01999 71.5128 9.45999C79.8995 14.7867 86.1895 22.04 90.3828 31.22C94.6895 40.2867 96.8428 50.3733 96.8428 61.48C96.8428 73.72 94.5195 84.3733 89.8728 93.44C85.2262 102.507 78.5961 109.533 69.9828 114.52C61.4828 119.507 51.4528 122 39.8928 122H0.452813ZM90.8928 61.48C90.8928 50.94 88.9095 41.5333 84.9428 33.26C80.9762 24.9867 75.1962 18.5267 67.6028 13.88C60.1228 9.11999 50.8861 6.73999 39.8928 6.73999H6.40281V116.56H39.8928C50.9995 116.56 60.3495 114.18 67.9428 109.42C75.5361 104.547 81.2595 97.9167 85.1128 89.53C88.9662 81.1433 90.8928 71.7933 90.8928 61.48ZM252.208 116.56V122H172.478V1.29999H250.678V6.73999H178.428V57.57H241.668V63.01H178.428V116.56H252.208ZM396.116 19.15C393.849 16.77 391.526 14.73 389.146 13.03C386.766 11.33 384.216 9.97 381.496 8.95C378.776 7.93 375.886 7.19333 372.826 6.73999C369.766 6.17333 366.423 5.89 362.796 5.89C349.989 5.89 340.696 8.32666 334.916 13.2C329.136 18.0733 326.246 24.59 326.246 32.75C326.246 38.3033 327.493 42.6667 329.986 45.84C332.479 49.0133 336.446 51.5633 341.886 53.49C347.326 55.3033 354.353 57.1167 362.966 58.93C371.806 60.7433 379.456 62.84 385.916 65.22C392.376 67.6 397.363 70.83 400.876 74.91C404.389 78.99 406.146 84.6 406.146 91.74C406.146 96.84 405.126 101.373 403.086 105.34C401.159 109.193 398.326 112.423 394.586 115.03C390.846 117.637 386.313 119.62 380.986 120.98C375.773 122.227 369.936 122.85 363.476 122.85C357.016 122.85 351.009 122.227 345.456 120.98C339.903 119.62 334.689 117.58 329.816 114.86C324.943 112.14 320.353 108.683 316.046 104.49L319.616 100.07C322.336 103.017 325.283 105.623 328.456 107.89C331.743 110.043 335.199 111.857 338.826 113.33C342.566 114.803 346.476 115.937 350.556 116.73C354.749 117.41 359.113 117.75 363.646 117.75C374.979 117.75 383.876 115.653 390.336 111.46C396.909 107.153 400.196 100.863 400.196 92.59C400.196 86.81 398.779 82.22 395.946 78.82C393.113 75.3067 388.806 72.4733 383.026 70.32C377.246 68.0533 369.879 66.0133 360.926 64.2C352.199 62.3867 344.776 60.4033 338.656 58.25C332.649 56.0967 328.059 53.0933 324.886 49.24C321.826 45.3867 320.296 40.1733 320.296 33.6C320.296 26.46 322.053 20.4533 325.566 15.58C329.079 10.5933 334.009 6.85333 340.356 4.35999C346.703 1.75333 354.126 0.449994 362.626 0.449994C367.839 0.449994 372.599 0.959995 376.906 1.97999C381.213 3 385.179 4.53 388.806 6.57C392.546 8.61 396.059 11.33 399.346 14.73L396.116 19.15ZM479.508 122V1.29999H485.458V122H479.508ZM617.303 122.85C609.03 122.85 601.436 121.093 594.523 117.58C587.61 114.067 581.603 109.363 576.503 103.47C571.403 97.5767 567.436 91.0033 564.603 83.75C561.883 76.4967 560.523 69.13 560.523 61.65C560.523 53.7167 561.883 46.1233 564.603 38.87C567.323 31.5033 571.12 24.93 575.993 19.15C580.98 13.37 586.816 8.83666 593.503 5.54999C600.303 2.14999 607.726 0.449994 615.773 0.449994C628.013 0.449994 637.76 2.94333 645.013 7.93C652.38 12.8033 657.99 19.0933 661.843 26.8L656.743 29.35C652.436 21.0767 646.77 15.1267 639.743 11.5C632.716 7.87333 624.67 6.05999 615.603 6.05999C608.123 6.05999 601.323 7.64666 595.203 10.82C589.196 13.88 584.04 18.0733 579.733 23.4C575.426 28.7267 572.14 34.7333 569.873 41.42C567.606 47.9933 566.473 54.7367 566.473 61.65C566.473 69.0167 567.776 76.0433 570.383 82.73C572.99 89.4167 576.616 95.3667 581.263 100.58C586.023 105.793 591.463 109.873 597.583 112.82C603.816 115.767 610.503 117.24 617.643 117.24C625.69 117.24 633.34 115.313 640.593 111.46C647.846 107.493 654.816 101.26 661.503 92.76V99.9C649.036 115.2 634.303 122.85 617.303 122.85ZM659.463 69.13H631.583V64.03H664.903V122H659.463V69.13ZM748.161 12.35V122H742.211V1.29999H746.971L835.371 112.65V1.29999H841.321V122H835.201L748.161 12.35ZM1004.76 116.56V122H925.027V1.29999H1003.23V6.73999H930.977V57.57H994.217V63.01H930.977V116.56H1004.76ZM1080.62 122V1.29999H1130.26C1135.36 1.29999 1140 2.37666 1144.2 4.52999C1148.39 6.56999 1152.02 9.40333 1155.08 13.03C1158.14 16.5433 1160.52 20.51 1162.22 24.93C1163.92 29.2367 1164.77 33.6567 1164.77 38.19C1164.77 44.31 1163.52 50.0333 1161.03 55.36C1158.53 60.6867 1155.08 65.1067 1150.66 68.62C1146.24 72.1333 1141.08 74.1733 1135.19 74.74L1165.45 122H1158.65L1128.73 75.42H1086.57V122H1080.62ZM1086.57 69.98H1131.28C1136.94 69.98 1141.82 68.45 1145.9 65.39C1150.09 62.33 1153.32 58.3633 1155.59 53.49C1157.85 48.6167 1158.99 43.5167 1158.99 38.19C1158.99 32.75 1157.68 27.65 1155.08 22.89C1152.47 18.0167 1148.96 14.1067 1144.54 11.16C1140.23 8.21333 1135.41 6.73999 1130.09 6.73999H1086.57V69.98Z" fill="white"/>
</svg>
