<?xml version="1.0" standalone="no"?>
<!DOCTYPE svg PUBLIC "-//W3C//DTD SVG 20010904//EN"
 "http://www.w3.org/TR/2001/REC-SVG-20010904/DTD/svg10.dtd">
<svg version="1.0" xmlns="http://www.w3.org/2000/svg"
 width="1452.000000pt" height="130.000000pt" viewBox="0 0 1452.000000 130.000000"
 preserveAspectRatio="xMidYMid meet">

<g transform="translate(0.000000,130.000000) scale(0.100000,-0.100000)"
fill="#FFFFFF" stroke="none">
<path d="M8721 1274 c-60 -16 -153 -63 -192 -97 -49 -44 -114 -133 -142 -194
-45 -100 -61 -191 -60 -343 1 -224 52 -368 172 -490 128 -129 299 -177 494
-135 189 40 335 194 394 415 24 91 24 337 0 435 -55 218 -204 374 -395 414
-72 15 -206 13 -271 -5z m240 -54 c233 -44 379 -265 379 -576 0 -289 -126
-499 -336 -560 -74 -21 -203 -21 -277 0 -220 64 -352 307 -334 615 7 113 26
193 67 277 92 189 287 284 501 244z"/>
<path d="M0 645 l0 -625 214 0 c308 0 404 19 539 108 156 102 237 278 237 516
0 271 -105 465 -300 559 -117 56 -194 67 -460 67 l-230 0 0 -625z m518 549
c264 -54 402 -242 402 -548 0 -185 -39 -301 -137 -406 -35 -39 -77 -70 -117
-90 -109 -54 -153 -61 -383 -67 l-213 -5 0 566 0 566 185 0 c130 0 209 -5 263
-16z"/>
<path d="M1890 645 l0 -625 385 0 385 0 0 30 0 30 -350 0 -350 0 0 275 0 275
323 2 322 3 3 28 3 27 -325 0 -326 0 0 260 0 260 340 0 340 0 0 30 0 30 -375
0 -375 0 0 -625z"/>
<path d="M3390 1264 c0 -3 102 -272 226 -598 124 -325 231 -604 236 -619 10
-26 14 -28 56 -25 l47 3 236 620 237 620 -30 3 c-17 2 -34 0 -38 -5 -4 -4
-105 -267 -225 -583 -120 -316 -221 -579 -225 -583 -4 -4 -54 117 -112 270
-58 153 -159 419 -224 590 l-119 313 -32 0 c-18 0 -33 -3 -33 -6z"/>
<path d="M5220 645 l0 -625 385 0 385 0 0 30 0 30 -350 0 -350 0 0 275 0 275
323 2 322 3 3 28 3 27 -325 0 -326 0 0 260 0 260 340 0 340 0 0 30 0 30 -375
0 -375 0 0 -625z"/>
<path d="M6910 645 l0 -625 375 0 375 0 0 30 0 30 -340 0 -340 0 0 595 0 595
-35 0 -35 0 0 -625z"/>
<path d="M10320 645 l0 -625 35 0 35 0 0 279 0 279 228 4 c204 3 233 6 286 26
81 30 144 85 181 157 41 82 47 202 15 289 -26 68 -75 126 -137 162 -79 47
-128 54 -395 54 l-248 0 0 -625z m541 545 c127 -39 189 -125 188 -260 0 -121
-39 -195 -126 -243 -69 -37 -144 -47 -350 -47 l-183 0 0 285 0 285 204 0 c175
0 213 -3 267 -20z"/>
<path d="M11990 645 l0 -625 385 0 385 0 0 30 0 30 -350 0 -350 0 0 275 0 275
323 2 322 3 3 28 3 27 -325 0 -326 0 0 260 0 260 340 0 340 0 0 30 0 30 -375
0 -375 0 0 -625z"/>
<path d="M13680 645 l0 -625 35 0 35 0 0 290 0 290 173 0 c184 0 234 -8 284
-46 46 -35 77 -93 133 -251 28 -76 62 -171 76 -210 25 -71 27 -73 60 -73 19 0
34 2 34 5 0 14 -153 422 -176 469 -31 64 -54 88 -110 115 -34 17 -36 20 -19
26 99 32 163 84 202 163 25 50 28 68 28 152 0 81 -4 102 -25 143 -44 87 -121
141 -238 166 -30 6 -147 11 -272 11 l-220 0 0 -625z m534 537 c77 -35 107 -61
132 -116 47 -102 26 -235 -49 -314 -70 -73 -149 -91 -394 -92 l-153 0 0 276 0
276 208 -4 c186 -4 212 -7 256 -26z"/>
</g>
</svg>
