<?xml version="1.0" standalone="no"?>
<!DOCTYPE svg PUBLIC "-//W3C//DTD SVG 20010904//EN"
 "http://www.w3.org/TR/2001/REC-SVG-20010904/DTD/svg10.dtd">
<svg version="1.0" xmlns="http://www.w3.org/2000/svg"
 width="1452.000000pt" height="130.000000pt" viewBox="0 0 1452.000000 130.000000"
 preserveAspectRatio="xMidYMid meet">

<g transform="translate(0.000000,130.000000) scale(0.100000,-0.100000)"
fill="#FFFFFF"  stroke="none">
<path d="M10515 1290 c-208 -29 -369 -183 -430 -415 -25 -94 -30 -282 -11
-394 39 -222 174 -396 351 -450 263 -81 531 23 643 251 57 117 75 204 75 368
0 163 -17 247 -73 362 -99 203 -314 311 -555 278z m203 -70 c123 -29 239 -127
297 -253 87 -188 85 -457 -5 -643 -49 -101 -138 -190 -227 -225 -50 -20 -75
-24 -183 -24 -120 0 -128 1 -193 32 -125 60 -216 179 -257 339 -24 94 -27 285
-5 387 52 245 223 396 450 396 44 1 99 -4 123 -9z"/>
<path d="M3380 650 l0 -630 30 0 30 0 0 310 0 310 385 0 385 0 0 -310 0 -310
35 0 35 0 -2 628 -3 627 -32 3 -33 3 0 -290 0 -291 -382 2 -383 3 -3 288 -2
287 -30 0 -30 0 0 -630z"/>
<path d="M5310 650 l0 -630 382 2 381 3 1 28 2 27 -353 0 -353 0 2 277 3 278
323 3 322 2 0 30 0 30 -325 0 -325 0 2 258 3 257 338 3 337 2 0 30 0 30 -370
0 -370 0 0 -630z"/>
<path d="M7020 650 l0 -630 375 0 375 0 0 30 0 30 -342 2 -343 3 -3 598 -2
597 -30 0 -30 0 0 -630z"/>
<path d="M8630 650 l0 -630 375 0 375 0 0 30 0 30 -342 2 -343 3 -3 598 -2
597 -30 0 -30 0 0 -630z"/>
</g>
</svg>
