<svg width="1535" height="124" viewBox="0 0 1535 124" fill="none" xmlns="http://www.w3.org/2000/svg">
<path d="M0.144219 122V1.29999H49.7842C54.8842 1.29999 59.5309 2.37666 63.7242 4.52999C67.9176 6.56999 71.5442 9.40333 74.6042 13.03C77.6642 16.5433 80.0442 20.51 81.7442 24.93C83.4442 29.2367 84.2942 33.6567 84.2942 38.19C84.2942 44.31 83.0476 50.0333 80.5542 55.36C78.0609 60.6867 74.6042 65.1067 70.1842 68.62C65.7642 72.1333 60.6076 74.1733 54.7142 74.74L84.9742 122H78.1742L48.2542 75.42H6.09422V122H0.144219ZM6.09422 69.98H50.8042C56.4709 69.98 61.3442 68.45 65.4242 65.39C69.6176 62.33 72.8476 58.3633 75.1142 53.49C77.3809 48.6167 78.5142 43.5167 78.5142 38.19C78.5142 32.75 77.2109 27.65 74.6042 22.89C71.9976 18.0167 68.4842 14.1067 64.0642 11.16C59.7576 8.21333 54.9409 6.73999 49.6142 6.73999H6.09422V69.98ZM240.445 116.56V122H160.715V1.29999H238.915V6.73999H166.665V57.57H229.905V63.01H166.665V116.56H240.445ZM384.352 19.15C382.086 16.77 379.762 14.73 377.382 13.03C375.002 11.33 372.452 9.97 369.732 8.95C367.012 7.93 364.122 7.19333 361.062 6.73999C358.002 6.17333 354.659 5.89 351.032 5.89C338.226 5.89 328.932 8.32666 323.152 13.2C317.372 18.0733 314.482 24.59 314.482 32.75C314.482 38.3033 315.729 42.6667 318.222 45.84C320.716 49.0133 324.682 51.5633 330.122 53.49C335.562 55.3033 342.589 57.1167 351.202 58.93C360.042 60.7433 367.692 62.84 374.152 65.22C380.612 67.6 385.599 70.83 389.112 74.91C392.626 78.99 394.382 84.6 394.382 91.74C394.382 96.84 393.362 101.373 391.322 105.34C389.396 109.193 386.562 112.423 382.822 115.03C379.082 117.637 374.549 119.62 369.222 120.98C364.009 122.227 358.172 122.85 351.712 122.85C345.252 122.85 339.246 122.227 333.692 120.98C328.139 119.62 322.926 117.58 318.052 114.86C313.179 112.14 308.589 108.683 304.282 104.49L307.852 100.07C310.572 103.017 313.519 105.623 316.692 107.89C319.979 110.043 323.436 111.857 327.062 113.33C330.802 114.803 334.712 115.937 338.792 116.73C342.986 117.41 347.349 117.75 351.882 117.75C363.216 117.75 372.112 115.653 378.572 111.46C385.146 107.153 388.432 100.863 388.432 92.59C388.432 86.81 387.016 82.22 384.182 78.82C381.349 75.3067 377.042 72.4733 371.262 70.32C365.482 68.0533 358.116 66.0133 349.162 64.2C340.436 62.3867 333.012 60.4033 326.892 58.25C320.886 56.0967 316.296 53.0933 313.122 49.24C310.062 45.3867 308.532 40.1733 308.532 33.6C308.532 26.46 310.289 20.4533 313.802 15.58C317.316 10.5933 322.246 6.85333 328.592 4.35999C334.939 1.75333 342.362 0.449994 350.862 0.449994C356.076 0.449994 360.836 0.959995 365.142 1.97999C369.449 3 373.416 4.53 377.042 6.57C380.782 8.61 384.296 11.33 387.582 14.73L384.352 19.15ZM547.474 116.56V122H467.744V1.29999H545.944V6.73999H473.694V57.57H536.934V63.01H473.694V116.56H547.474ZM661.754 1.29999H666.854L718.704 122H712.414L694.564 80.35H634.044L616.194 122H609.734L661.754 1.29999ZM692.694 75.25L664.304 8.78L635.744 75.25H692.694ZM789.05 122V1.29999H838.69C843.79 1.29999 848.437 2.37666 852.63 4.52999C856.824 6.56999 860.45 9.40333 863.51 13.03C866.57 16.5433 868.95 20.51 870.65 24.93C872.35 29.2367 873.2 33.6567 873.2 38.19C873.2 44.31 871.954 50.0333 869.46 55.36C866.967 60.6867 863.51 65.1067 859.09 68.62C854.67 72.1333 849.514 74.1733 843.62 74.74L873.88 122H867.08L837.16 75.42H795V122H789.05ZM795 69.98H839.71C845.377 69.98 850.25 68.45 854.33 65.39C858.524 62.33 861.754 58.3633 864.02 53.49C866.287 48.6167 867.42 43.5167 867.42 38.19C867.42 32.75 866.117 27.65 863.51 22.89C860.904 18.0167 857.39 14.1067 852.97 11.16C848.664 8.21333 843.847 6.73999 838.52 6.73999H795V69.98ZM941.121 60.8C941.121 53.5467 942.367 46.4067 944.861 39.38C947.467 32.24 951.207 25.78 956.081 20C960.954 14.1067 966.904 9.40333 973.931 5.89C981.071 2.37666 989.174 0.619992 998.241 0.619992C1009.01 0.619992 1018.13 3.11333 1025.61 8.1C1033.2 12.9733 1038.81 19.2633 1042.44 26.97L1037.34 29.35C1034.39 23.6833 1030.71 19.15 1026.29 15.75C1021.98 12.35 1017.34 9.91333 1012.35 8.43999C1007.48 6.96666 1002.55 6.22999 997.561 6.22999C989.514 6.22999 982.317 7.81666 975.971 10.99C969.737 14.1633 964.467 18.4133 960.161 23.74C955.854 29.0667 952.567 35.0167 950.301 41.59C948.147 48.05 947.071 54.6233 947.071 61.31C947.071 68.79 948.374 75.8733 950.981 82.56C953.587 89.2467 957.157 95.1967 961.691 100.41C966.337 105.623 971.721 109.76 977.841 112.82C984.074 115.88 990.817 117.41 998.071 117.41C1003.17 117.41 1008.38 116.56 1013.71 114.86C1019.04 113.16 1024.02 110.497 1028.67 106.87C1033.32 103.243 1037.06 98.5967 1039.89 92.93L1045.16 94.97C1042.44 100.977 1038.47 106.077 1033.26 110.27C1028.05 114.463 1022.27 117.637 1015.92 119.79C1009.69 121.943 1003.51 123.02 997.391 123.02C989.231 123.02 981.694 121.263 974.781 117.75C967.867 114.123 961.861 109.363 956.761 103.47C951.774 97.4633 947.921 90.7767 945.201 83.41C942.481 75.93 941.121 68.3933 941.121 60.8ZM1210.63 1.29999V122H1204.85V63.01H1124.61V122H1118.66V1.29999H1124.61V57.57H1204.85V1.29999H1210.63ZM1374.07 116.56V122H1294.34V1.29999H1372.54V6.73999H1300.29V57.57H1363.53V63.01H1300.29V116.56H1374.07ZM1449.93 122V1.29999H1499.57C1504.67 1.29999 1509.31 2.37666 1513.51 4.52999C1517.7 6.56999 1521.33 9.40333 1524.39 13.03C1527.45 16.5433 1529.83 20.51 1531.53 24.93C1533.23 29.2367 1534.08 33.6567 1534.08 38.19C1534.08 44.31 1532.83 50.0333 1530.34 55.36C1527.84 60.6867 1524.39 65.1067 1519.97 68.62C1515.55 72.1333 1510.39 74.1733 1504.5 74.74L1534.76 122H1527.96L1498.04 75.42H1455.88V122H1449.93ZM1455.88 69.98H1500.59C1506.25 69.98 1511.13 68.45 1515.21 65.39C1519.4 62.33 1522.63 58.3633 1524.9 53.49C1527.16 48.6167 1528.3 43.5167 1528.3 38.19C1528.3 32.75 1526.99 27.65 1524.39 22.89C1521.78 18.0167 1518.27 14.1067 1513.85 11.16C1509.54 8.21333 1504.72 6.73999 1499.4 6.73999H1455.88V69.98Z" fill="white"/>
</svg>
