<svg width="513" height="94" viewBox="0 0 513 94" preserveAspectRatio="xMidYMid meet" fill="none" xmlns="http://www.w3.org/2000/svg">
<path d="M38.602 93.65C31.322 93.65 25.212 92.35 20.272 89.75C15.332 87.0633 11.3887 83.51 8.44203 79.09C5.58203 74.5833 3.50203 69.5567 2.20203 64.01C0.988698 58.4633 0.382031 52.7867 0.382031 46.98V0.699995H4.93203V46.98C4.93203 52.2667 5.45203 57.4667 6.49203 62.58C7.6187 67.6933 9.4387 72.2867 11.952 76.36C14.4654 80.3467 17.8887 83.51 22.222 85.85C26.5554 88.19 31.972 89.36 38.472 89.36C45.0587 89.36 50.5187 88.1467 54.852 85.72C59.272 83.2933 62.7387 80.0433 65.252 75.97C67.7654 71.8967 69.542 67.3467 70.582 62.32C71.622 57.2933 72.142 52.18 72.142 46.98V0.699995H76.562V46.98C76.562 53.0467 75.912 58.8967 74.612 64.53C73.312 70.1633 71.1887 75.1467 68.242 79.48C65.2954 83.8133 61.3954 87.28 56.542 89.88C51.6887 92.3933 45.7087 93.65 38.602 93.65ZM133.224 0.699995L167.284 44.12L201.214 0.699995H206.544L169.754 47.5L205.504 93H200.174L167.284 50.88L134.264 93H128.804L164.554 47.5L127.764 0.699995H133.224ZM315.357 0.699995L255.427 93H250.227L310.027 0.699995H315.357ZM407.223 93.65C399.943 93.65 393.833 92.35 388.893 89.75C383.953 87.0633 380.01 83.51 377.063 79.09C374.203 74.5833 372.123 69.5567 370.823 64.01C369.61 58.4633 369.003 52.7867 369.003 46.98V0.699995H373.553V46.98C373.553 52.2667 374.073 57.4667 375.113 62.58C376.24 67.6933 378.06 72.2867 380.573 76.36C383.086 80.3467 386.51 83.51 390.843 85.85C395.176 88.19 400.593 89.36 407.093 89.36C413.68 89.36 419.14 88.1467 423.473 85.72C427.893 83.2933 431.36 80.0433 433.873 75.97C436.386 71.8967 438.163 67.3467 439.203 62.32C440.243 57.2933 440.763 52.18 440.763 46.98V0.699995H445.183V46.98C445.183 53.0467 444.533 58.8967 443.233 64.53C441.933 70.1633 439.81 75.1467 436.863 79.48C433.916 83.8133 430.016 87.28 425.163 89.88C420.31 92.3933 414.33 93.65 407.223 93.65ZM507.695 93V0.699995H512.245V93H507.695Z" fill="white"/>
</svg>
