<?xml version="1.0" standalone="no"?>
<!DOCTYPE svg PUBLIC "-//W3C//DTD SVG 20010904//EN"
 "http://www.w3.org/TR/2001/REC-SVG-20010904/DTD/svg10.dtd">
<svg version="1.0" xmlns="http://www.w3.org/2000/svg"
 width="1452.000000pt" height="130.000000pt" viewBox="0 0 1452.000000 130.000000"
 preserveAspectRatio="xMidYMid meet">

<g transform="translate(0.000000,130.000000) scale(0.100000,-0.100000)"
fill="#FFFFFF" stroke="none">
<path d="M6521 1274 c-60 -16 -153 -63 -192 -97 -49 -44 -114 -133 -142 -194
-45 -100 -61 -191 -60 -343 1 -224 52 -368 172 -490 128 -129 299 -177 494
-135 189 40 335 194 394 415 24 91 24 337 0 435 -55 218 -204 374 -395 414
-72 15 -206 13 -271 -5z m240 -54 c233 -44 379 -265 379 -576 0 -289 -126
-499 -336 -560 -74 -21 -203 -21 -277 0 -220 64 -352 307 -334 615 7 113 26
193 67 277 92 189 287 284 501 244z"/>
<path d="M3914 1148 c18 -68 93 -349 166 -625 l134 -503 51 0 51 0 153 582
c84 321 156 586 160 590 4 4 76 -258 161 -582 l155 -590 51 0 51 0 16 58 c9
31 82 305 162 607 80 303 148 558 151 568 4 14 -1 17 -28 17 l-34 0 -53 -197
c-29 -109 -100 -373 -157 -587 -57 -214 -105 -390 -107 -392 -2 -3 -39 130
-82 293 -42 164 -112 429 -154 588 l-77 290 -51 3 c-50 3 -51 2 -62 -30 -9
-31 -66 -246 -231 -872 -39 -149 -72 -271 -74 -273 -1 -2 -42 144 -90 325 -48
180 -119 445 -158 590 l-71 262 -33 0 -32 0 32 -122z"/>
<path d="M8110 645 l0 -625 35 0 35 0 0 290 0 290 173 0 c184 0 234 -8 284
-46 46 -35 77 -93 133 -251 28 -76 62 -171 76 -210 25 -71 27 -73 60 -73 19 0
34 2 34 5 0 14 -153 422 -176 469 -31 64 -54 88 -110 115 -34 17 -36 20 -19
26 99 32 163 84 202 163 25 50 28 68 28 152 0 81 -4 102 -25 143 -44 87 -121
141 -238 166 -30 6 -147 11 -272 11 l-220 0 0 -625z m534 537 c77 -35 107 -61
132 -116 47 -102 26 -235 -49 -314 -70 -73 -149 -91 -394 -92 l-153 0 0 276 0
276 208 -4 c186 -4 212 -7 256 -26z"/>
<path d="M9820 645 l0 -625 35 0 35 0 2 316 3 317 321 -317 322 -316 43 0 44
0 -329 329 -330 330 299 293 298 293 -42 3 -42 3 -292 -285 -292 -285 -3 284
-2 285 -35 0 -35 0 0 -625z"/>
</g>
</svg>
